<svg width="20" height="18" viewBox="0 0 20 18" fill="none" xmlns="http://www.w3.org/2000/svg">
<path d="M0 9C0 4.02944 4.02944 0 9 0H11C15.9706 0 20 4.02944 20 9C20 13.9706 15.9706 18 11 18H9C4.02944 18 0 13.9706 0 9Z" fill="white"/>
<path d="M7.22839 8.941C7.22839 7.67967 7.43372 6.697 7.84439 5.993C8.25505 5.28167 8.97372 4.926 10.0004 4.926C11.0197 4.926 11.7347 5.28167 12.1454 5.993C12.5561 6.697 12.7614 7.67967 12.7614 8.941C12.7614 10.2243 12.5561 11.2217 12.1454 11.933C11.7347 12.6443 11.0197 13 10.0004 13C8.97372 13 8.25505 12.6443 7.84439 11.933C7.43372 11.2217 7.22839 10.2243 7.22839 8.941ZM11.7714 8.941C11.7714 8.303 11.7274 7.764 11.6394 7.324C11.5587 6.87667 11.3864 6.51733 11.1224 6.246C10.8657 5.97467 10.4917 5.839 10.0004 5.839C9.50172 5.839 9.12039 5.97467 8.85639 6.246C8.59972 6.51733 8.42739 6.87667 8.33939 7.324C8.25872 7.764 8.21839 8.303 8.21839 8.941C8.21839 9.601 8.25872 10.1547 8.33939 10.602C8.42739 11.0493 8.59972 11.4087 8.85639 11.68C9.12039 11.9513 9.50172 12.087 10.0004 12.087C10.4917 12.087 10.8657 11.9513 11.1224 11.68C11.3864 11.4087 11.5587 11.0493 11.6394 10.602C11.7274 10.1547 11.7714 9.601 11.7714 8.941Z" fill="#575445"/>
</svg>
